<?xml version="1.0" encoding="UTF-8" standalone="no"?>
<!-- Created with Inkscape (http://www.inkscape.org/) -->

<svg
   version="1.1"
   id="svg2"
   width="2501.6667"
   height="666.66669"
   viewBox="0 0 2501.6667 666.66669"
   sodipodi:docname="new_hat_logo_happy.ai"
   xmlns:inkscape="http://www.inkscape.org/namespaces/inkscape"
   xmlns:sodipodi="http://sodipodi.sourceforge.net/DTD/sodipodi-0.dtd"
   xmlns="http://www.w3.org/2000/svg"
   xmlns:svg="http://www.w3.org/2000/svg">
  <defs
     id="defs6">
    <clipPath
       clipPathUnits="userSpaceOnUse"
       id="clipPath16">
      <path
         d="M 0,500 H 1876.25 V 0 H 0 Z"
         id="path14" />
    </clipPath>
  </defs>
  <sodipodi:namedview
     id="namedview4"
     pagecolor="#ffffff"
     bordercolor="#000000"
     borderopacity="0.25"
     inkscape:showpageshadow="2"
     inkscape:pageopacity="0.0"
     inkscape:pagecheckerboard="0"
     inkscape:deskcolor="#d1d1d1" />
  <g
     id="g8"
     inkscape:groupmode="layer"
     inkscape:label="new_hat_logo_happy"
     transform="matrix(1.3333333,0,0,-1.3333333,0,666.66667)">
    <g
       id="g10">
      <g
         id="g12"
         clip-path="url(#clipPath16)">
        <g
           id="g18"
           transform="translate(238.6015,130.2904)">
          <path
             d="M 0,0 C 2.189,-0.854 4.377,-1.707 6.978,-2.721 4.839,-4.911 3.07,-6.803 1.205,-8.594 c -0.861,-0.827 -1.72,-1.208 -2.567,0.315 -0.892,1.604 -5.727,2.561 -7.431,2.278 -1.369,-0.228 -2.922,0.309 -4.328,0.727 -3.081,0.917 -6.103,2.031 -9.18,2.96 -4.346,1.311 -8.703,2.602 -13.106,3.695 -0.547,0.135 -1.776,-0.848 -2.06,-1.563 -1.1,-2.767 -1.743,-5.724 -2.93,-8.447 -2.406,-5.523 -5.091,-10.924 -7.592,-16.406 -1.871,-4.101 -3.588,-8.272 -5.482,-12.362 -0.401,-0.865 -1.157,-1.894 -1.964,-2.138 -0.659,-0.2 -2.094,0.465 -2.361,1.096 -0.336,0.792 0.168,1.94 0.307,2.919 -2.688,-0.012 -3.011,0.383 -3.323,3.245 -0.181,1.668 -0.674,3.301 -1.026,4.946 -1.099,-0.195 -2.128,-0.513 -3.156,-0.513 -0.755,10e-4 -2.097,0.321 -2.156,0.671 -0.178,1.055 -0.278,2.705 0.341,3.215 2.93,2.413 3.77,5.101 1.729,8.539 2.658,0.499 3.402,1.941 3.58,4.389 0.164,2.245 1.325,4.418 2.045,6.623 1.319,4.035 2.642,8.069 3.95,12.108 0.476,1.471 -0.301,2.223 -1.605,2.559 -4.587,1.183 -9.133,2.704 -13.797,3.317 -1.844,0.243 -3.074,0.954 -4.59,1.637 -1.996,0.9 -4.288,1.116 -6.394,1.808 -2.323,0.762 -4.607,1.665 -6.837,2.664 -0.424,0.19 -0.7,1.1 -0.736,1.697 -0.116,1.879 0.428,3.738 -1.087,5.517 -0.519,0.61 0.424,2.414 0.601,3.686 0.149,1.071 0.156,2.162 0.241,3.488 3.158,2.797 6.939,2.091 10.971,1.013 5.363,-1.433 10.866,-2.333 16.269,-3.629 3.968,-0.953 7.901,-2.083 11.793,-3.315 1.861,-0.589 2.848,-0.212 3.654,1.598 2.584,5.805 5.452,11.486 7.907,17.342 1.071,2.556 1.336,5.439 2.099,8.137 0.562,1.988 1.338,3.916 2.049,5.958 1.459,-0.177 2.624,-0.319 3.805,-0.462 1.227,2.272 2.338,4.703 3.821,6.881 0.547,0.803 1.971,1.01 2.995,1.489 0.1,-0.184 0.2,-0.368 0.3,-0.553 0.505,0.702 1.01,1.405 1.396,1.941 7.12,-4.865 4.592,-10.735 1.916,-16.566 -1.009,0.586 -1.501,0.477 -1.747,-1.213 -0.341,-2.332 -1.305,-4.572 -1.984,-6.857 -0.193,-0.652 -0.322,-1.322 -0.48,-1.983 0.193,-0.085 0.385,-0.169 0.578,-0.253 0.301,0.353 0.707,0.66 0.886,1.067 0.859,1.951 1.623,3.945 2.501,5.887 0.186,0.413 0.769,0.991 1.057,0.933 0.416,-0.082 1.066,-0.713 1.03,-1.047 -0.161,-1.502 -0.266,-3.099 -0.87,-4.449 -1.914,-4.281 -3.996,-8.49 -6.1,-12.683 -1.656,-3.298 -3.507,-6.498 -5.146,-9.804 -1.151,-2.323 -0.494,-3.8 1.963,-4.638 2.197,-0.749 4.487,-1.233 6.658,-2.045 4.909,-1.837 9.742,-3.875 14.66,-5.684 2.215,-0.815 4.574,-1.232 6.836,-1.93 C -0.189,8.993 0.74,8.595 1.004,8.022 2.084,5.674 4.619,5.952 6.329,4.799 7.055,4.31 7.675,3.665 8.344,3.091 7.467,2.741 6.618,2.262 5.709,2.069 3.815,1.666 1.888,1.415 -0.025,1.101 -0.017,0.734 -0.008,0.367 0,0"
             style="fill:#000000;fill-opacity:1;fill-rule:nonzero;stroke:none"
             id="path20" />
        </g>
        <g
           id="g22"
           transform="translate(306.7499,339.4308)">
          <path
             d="m 0,0 c -20.995,-2.164 -44.201,3.571 -63.902,-3.986 -13.006,-8.846 -10.446,-30.735 -21.144,-41.804 -16.722,-11.016 -42.47,-9.8 -55.44,7.108 -6.515,8.775 -1.864,20.138 0.774,29.578 6.796,21.738 12.13,44.069 16.068,66.544 2.799,10.381 3.859,23.429 12.946,30.381 10.153,6.492 22.367,5.029 34.156,7.438 7.072,1.091 14.516,4.208 21.552,1.385 20.48,-8.553 -2.685,-32.359 7.774,-46.57 6.125,-7.059 17.579,-4.854 26.101,-4.986 26.21,0.408 52.574,0.779 78.952,1.103 29.649,-2.703 21.432,38.268 46.281,44.651 28.421,7.258 72.628,8.894 58.394,-33.371 -6.803,-24.406 -13.767,-48.996 -21.966,-72.851 -5.1,-12.25 -2.847,-30.998 -17.417,-36.548 -12.262,-2.612 -25.346,-1.515 -37.897,-1.282 -5.747,0.323 -11.669,1.983 -15.457,6.467 -11.291,11.801 1.925,26.227 -1.797,38.939 -1.739,4.807 -6.755,6.857 -11.556,7.306 C 37.765,1.007 19.383,0.851 0.971,0.084 L 0.012,0.012 Z"
             style="fill:#000000;fill-opacity:1;fill-rule:nonzero;stroke:none"
             id="path24" />
        </g>
        <g
           id="g26"
           transform="translate(641.6801,351.4709)">
          <path
             d="m 0,0 c 7.69,1.181 18.028,2.554 26.293,4.328 1.661,0.617 3.53,1.474 4.478,3.002 4.117,9.17 -2.326,20.438 -9.309,26.569 C 12.832,40.947 -5.4,13.563 -10.009,7.066 -12.262,0.229 -5.682,0.462 -0.881,0 Z m 33.479,80.504 c 29.788,4.711 50.507,-1.385 62.446,-31.19 13.114,-27.018 25.67,-54.587 36.284,-82.584 5.011,-11.087 8.595,-29.409 -8.079,-31.309 -18.322,-1.732 -37.195,-2.182 -54.99,4.327 -11.663,5.245 -15.169,21.541 -29.116,23.627 -6.197,1.684 -13.449,1.234 -19.964,0.791 -26.664,-2.602 -54.222,3.242 -80.288,-4.279 -5.735,-2.237 -9.973,-7.439 -15.223,-10.962 -8.625,-5.515 -18.532,-9.734 -28.559,-11.747 -32.982,-4.334 -54.288,10.218 -20.509,36.158 26.557,22.415 50.674,47.575 74.899,72.382 16.375,18.376 37.172,36.069 63.297,34.852 6.083,-0.389 13.15,-0.929 18.849,-0.156 l 0.959,0.09 z"
             style="fill:#000000;fill-opacity:1;fill-rule:nonzero;stroke:none"
             id="path28" />
        </g>
        <g
           id="g30"
           transform="translate(966.014,362.5051)">
          <path
             d="M 0,0 C 11.993,0.642 24.435,1.45 33.569,2.038 44.01,2.739 58.076,3.051 64.603,13.107 69.5,38.52 -4.369,30.195 -19.892,29.877 -33.096,30.177 -43.536,20.474 -41.696,7.528 -40.024,1.9 -31.424,1.972 -24.375,1.301 -16.788,0.762 -6.042,0.078 -0.953,-0.023 l 0.959,0.017 z m 7.294,70.776 c 33.006,-1.498 68.013,4.562 99.089,-9.523 36.668,-10.387 45.436,-59.251 10.65,-78.059 -21.27,-12.406 -44.255,-21.33 -69.703,-20.245 -20.893,0.826 -41.924,-3.297 -62.439,-5.064 -12.928,-3.07 -29.494,5.513 -39.869,-4.598 -4.71,-5.897 -5.526,-14.324 -10.554,-20.132 -9.014,-11.208 -25.604,-9.865 -39.149,-9.793 -9.991,0.384 -25.622,-1.331 -27.228,11.963 0.947,30.315 17.159,57.028 25.226,85.826 4.98,16.134 4.244,37.542 21.78,45.873 29.62,8.104 61.007,3.009 91.256,3.8 l 0.935,-0.048 z"
             style="fill:#000000;fill-opacity:1;fill-rule:nonzero;stroke:none"
             id="path32" />
        </g>
        <g
           id="g34"
           transform="translate(1275.6122,362.5051)">
          <path
             d="M 0,0 C 11.993,0.642 24.436,1.45 33.569,2.038 44.01,2.739 58.077,3.051 64.604,13.107 69.5,38.52 -4.369,30.195 -19.892,29.877 -33.096,30.177 -43.536,20.474 -41.696,7.528 -40.023,1.9 -31.423,1.972 -24.375,1.301 -16.787,0.762 -6.041,0.078 -0.952,-0.023 l 0.959,0.017 z m 7.294,70.776 c 33.006,-1.498 68.014,4.562 99.09,-9.523 36.668,-10.387 45.436,-59.251 10.65,-78.059 -21.27,-12.406 -44.256,-21.33 -69.704,-20.245 -20.893,0.826 -41.924,-3.297 -62.439,-5.064 -12.928,-3.07 -29.494,5.513 -39.869,-4.598 -4.71,-5.897 -5.525,-14.324 -10.553,-20.132 -9.015,-11.208 -25.605,-9.865 -39.15,-9.793 -9.991,0.384 -25.622,-1.331 -27.229,11.963 0.948,30.315 17.16,57.028 25.227,85.826 4.981,16.134 4.244,37.542 21.781,45.873 29.619,8.104 61.006,3.009 91.256,3.8 l 0.934,-0.048 z"
             style="fill:#000000;fill-opacity:1;fill-rule:nonzero;stroke:none"
             id="path36" />
        </g>
        <g
           id="g38"
           transform="translate(1500.6718,434.1144)">
          <path
             d="m 0,0 c 24.237,0.575 35.601,1.318 53.569,-20.677 11.327,-10.363 18.61,-26 32.077,-33.372 10.608,-0.551 20.12,7.966 28.697,13.426 47.059,37.446 42.541,46.293 105.903,40.09 15.979,-4.735 2.77,-18.412 -7.611,-24.268 -30.782,-20.413 -58.957,-44.734 -89.135,-66.089 -23.985,-11.681 -11.172,-57.057 -42.205,-57.441 -12.784,0.024 -25.4,0.893 -38.059,1.738 -7.341,0.126 -15.768,5.082 -16.559,13.048 0.545,18.327 10.554,37.591 -5.401,52.538 -17.375,18.711 -34.048,37.759 -50.673,56.938 -19.366,22.552 15.342,23.991 28.564,24.046 l 0.827,0.017 z"
             style="fill:#000000;fill-opacity:1;fill-rule:nonzero;stroke:none"
             id="path40" />
        </g>
        <g
           id="g42"
           transform="translate(552.5345,107.6837)">
          <path
             d="m 0,0 c 10.41,0 20.802,-1.016 30.898,-2.003 14.147,-1.382 27.517,-2.688 40.905,-1.46 14.68,4.662 27.64,19.362 30.564,34.615 -1.567,7.185 -13.638,10.989 -23.653,12.925 -13.915,2.691 -30.063,3.03 -39.71,3.235 l -2.576,0.056 -0.529,-0.014 C 33.223,47.017 30.358,46.859 27.331,46.694 18.024,46.185 7.49,45.608 3.556,39.241 -1.244,28.644 -4.676,16.97 -7.996,5.677 L -8.381,4.369 C -8.653,3.221 -8.214,2.286 -7.792,1.701 -7.097,0.735 -5.971,0.067 -4.815,-0.076 -3.21,-0.024 -1.604,0 0,0 m 60.606,-13.944 c -10.325,0 -20.624,1.006 -30.68,1.989 -11.434,1.117 -23.255,2.27 -34.712,1.874 l -0.262,-0.009 -0.261,0.019 c -4.172,0.291 -8.134,2.508 -10.597,5.927 -2.34,3.248 -3.12,7.284 -2.143,11.074 l 0.458,1.567 c 3.445,11.718 7.008,23.835 12.162,35.145 l 0.235,0.453 c 6.552,11.193 20.651,11.965 31.978,12.585 1.262,0.068 2.493,0.135 3.676,0.215 v 0.324 l 5.955,0.152 2.8,-0.062 c 22.777,-0.48 70.173,-1.48 73.186,-25.572 l 0.092,-0.728 -0.122,-0.724 C 109.087,10.791 93.048,-7.488 74.234,-13.179 l -0.473,-0.143 -0.493,-0.047 c -4.214,-0.407 -8.441,-0.575 -12.662,-0.575 m -99.342,106.54 c -12.881,0 -20.574,-3.797 -23.462,-11.55 l -0.094,-0.232 C -67.728,68.193 -70.813,54.6 -74.079,40.207 c -3.05,-13.441 -6.204,-27.34 -11.459,-40.359 -0.622,-1.494 -1.268,-3.004 -1.936,-4.568 -5.14,-12.029 -12.908,-30.206 -7.637,-38.423 2.303,-3.59 7.449,-5.527 15.295,-5.755 7.216,0.248 14.524,0.405 21.592,0.557 14.035,0.302 28.544,0.614 42.572,1.649 l 1.207,0.162 c 11.196,0.668 22.592,0.942 33.615,1.209 40.127,0.967 78.028,1.882 113.303,19.901 l 0.128,0.063 c 25.188,11.973 44.795,39.462 45.606,63.943 0.557,16.802 -7.751,30.493 -24.024,39.597 l -0.114,0.064 c -4.255,2.527 -9.182,4.316 -15.064,5.47 -5.546,0.977 -11.269,2.043 -16.802,3.073 -20.752,3.863 -42.21,7.858 -63.42,8.917 C 49.097,95.305 39.207,94.52 29.642,93.762 8.646,92.099 -13.065,90.375 -34.627,92.478 c -1.424,0.079 -2.794,0.118 -4.109,0.118 m -41.043,-151.498 -0.152,0.004 c -11.442,0.299 -19.382,3.785 -23.597,10.356 -8.13,12.675 0.18,32.124 6.858,47.751 0.656,1.536 1.29,3.02 1.88,4.434 4.933,12.221 7.996,25.721 10.959,38.778 3.214,14.161 6.537,28.803 12.308,42.238 4.888,12.945 17.519,18.935 37.562,17.797 l 0.205,-0.016 c 20.712,-2.03 42.011,-0.341 62.608,1.29 9.733,0.772 19.797,1.571 29.748,1.978 l 0.223,0.009 0.225,-0.011 c 21.96,-1.075 43.833,-5.146 64.985,-9.085 5.512,-1.026 11.21,-2.087 16.803,-3.074 7.091,-1.39 13.042,-3.566 18.283,-6.668 19.433,-10.892 29.761,-28.158 29.083,-48.624 -0.926,-27.93 -22.95,-59.133 -51.244,-72.613 -37.287,-19.026 -78.087,-20.009 -117.547,-20.961 -9.729,-0.235 -19.754,-0.477 -29.607,-0.99 l -4.45,-0.337 c -14.373,-1.069 -29.11,-1.386 -43.362,-1.693 -7.088,-0.152 -14.417,-0.31 -21.62,-0.558 z"
             style="fill:#000000;fill-opacity:1;fill-rule:nonzero;stroke:none"
             id="path44" />
        </g>
        <g
           id="g46"
           transform="translate(899.8919,124.4708)">
          <path
             d="m 0,0 h 0.267 c 1.589,0.243 3.287,0.493 5.05,0.755 6.564,0.97 13.987,2.067 20.204,3.383 0.922,0.361 1.355,0.62 1.552,0.767 2.365,6.299 -2.319,14.95 -8.134,20.123 C 18.337,25.162 13.012,25.317 -4.221,0.687 -4.278,0.604 -4.335,0.522 -4.391,0.443 -3.439,0.277 -2.162,0.177 -1.278,0.106 -0.845,0.072 -0.417,0.038 0,0 M -4.817,-0.399 V -0.4 Z M 1.029,-10 -0.712,-9.977 c -0.439,0.042 -0.894,0.079 -1.356,0.115 -3.68,0.292 -8.719,0.691 -11.352,4.651 -1.599,2.406 -1.831,5.381 -0.69,8.843 l 0.235,0.714 0.436,0.613 c 0.289,0.407 0.632,0.898 1.024,1.459 16.659,23.812 24.369,27.78 29.714,28.521 2.973,0.415 5.732,-0.337 7.973,-2.167 l 0.136,-0.116 C 34.081,25.04 41.088,11.661 35.979,0.282 L 35.668,-0.304 C 33.913,-3.135 31.014,-4.492 28.683,-5.358 L 28.344,-5.484 27.99,-5.561 C 21.383,-6.979 13.625,-8.126 6.78,-9.138 4.895,-9.417 3.087,-9.684 1.406,-9.942 Z m 70.656,-50.622 c 17.201,-6.24 35.454,-5.601 52.622,-3.98 4.799,0.548 6.086,2.815 6.508,3.559 2.633,4.638 0.634,13.745 -2.515,20.715 l -0.118,0.286 c -9.195,24.25 -20.668,50.361 -36.108,82.173 l -0.143,0.324 C 81.866,67.583 65.873,75.463 34.908,70.565 l -0.441,2.789 0.133,-2.829 -0.86,-0.08 C 27.941,69.675 21.183,70.114 15.216,70.502 L 14.005,70.58 C 1.815,71.149 -17.674,68.329 -45.239,37.392 l -0.157,-0.167 -5.887,-6.036 C -73.296,8.613 -96.058,-14.73 -120.647,-35.486 l -0.18,-0.145 c -8.606,-6.608 -17.009,-15.583 -14.784,-20.953 1.98,-4.782 13.662,-8.605 31.429,-6.304 9.042,1.839 18.247,5.638 26.637,10.993 1.711,1.155 3.358,2.559 5.101,4.045 3.281,2.797 6.673,5.69 11.048,7.395 l 0.429,0.144 c 16.714,4.825 33.922,4.397 50.561,3.986 10.131,-0.25 20.606,-0.511 30.628,0.467 l 0.145,0.011 c 6.364,0.434 14.266,0.974 21.337,-0.88 9.59,-1.552 15.006,-8.303 19.789,-14.266 3.216,-4.009 6.254,-7.797 10.192,-9.629 m 32.729,-15.051 c -11.95,0 -24.402,1.358 -36.345,5.726 l -0.333,0.134 c -6.205,2.792 -10.369,7.982 -14.043,12.562 -4.217,5.258 -7.859,9.798 -13.76,10.68 l -0.573,0.12 c -5.495,1.494 -12.552,1.02 -18.242,0.633 -10.602,-1.03 -21.364,-0.762 -31.771,-0.504 -16.533,0.41 -32.15,0.796 -47.307,-3.53 -2.728,-1.117 -5.289,-3.3 -7.996,-5.608 -1.896,-1.616 -3.857,-3.288 -6.061,-4.768 l -0.093,-0.061 c -9.488,-6.065 -19.953,-10.365 -30.268,-12.437 l -0.333,-0.054 c -21.654,-2.847 -37.8,1.893 -42.139,12.369 -2.712,6.545 -1.81,17.517 17.84,32.64 24.185,20.424 46.747,43.564 68.567,65.941 l 5.813,5.959 c 14.567,16.335 37.337,37.853 67.187,36.435 l 1.307,-0.083 c 5.535,-0.359 11.808,-0.766 16.638,-0.112 l 0.993,0.097 c 17.068,2.68 29.971,1.712 40.593,-3.051 11.941,-5.353 20.794,-15.52 27.058,-31.075 15.505,-31.954 27.054,-58.239 36.333,-82.695 2.038,-4.551 7.836,-19.405 2.032,-29.625 -1.925,-3.391 -5.946,-7.63 -14.167,-8.567 -6.642,-0.628 -13.695,-1.126 -20.93,-1.126"
             style="fill:#000000;fill-opacity:1;fill-rule:nonzero;stroke:none"
             id="path48" />
        </g>
        <g
           id="g50"
           transform="translate(1227.2552,103.502)">
          <path
             d="m 0,0 z m -127.684,-36.359 c 3.852,-5.203 10.81,-5.62 20.882,-5.648 2.646,-0.008 5.382,-0.014 7.959,-0.21 38.852,-3.485 77.849,-2.637 107.537,-1.502 30.486,3.931 57.8,5.431 83.478,4.591 4.934,0.328 8.927,3.416 10.972,8.5 l 0.106,0.26 c 3.194,7.807 5.229,13.655 2.288,17.818 l -0.065,0.096 c -2.807,4.177 -8.295,6.554 -14.66,6.333 l -0.111,-0.004 -0.11,0.001 C 75.53,-5.958 60.092,-7.163 45.176,-8.331 31.55,-9.397 17.461,-10.5 3.512,-10.577 l -0.162,0.002 c -2.487,0.067 -6.63,0.491 -8.932,2.44 l -0.007,-0.009 c -2.941,2.498 -3.104,5.307 -2.939,6.759 0.554,4.897 5.659,7.54 9.385,9.471 0.445,0.229 0.849,0.438 1.182,0.624 l 0.128,0.068 c 19.104,9.928 39.033,18.858 58.307,27.493 21.152,9.478 43.024,19.279 63.666,30.352 7.019,4.419 8.776,15.442 8.072,24.511 -1.37,3.874 -7.435,5.992 -13.058,6.399 C 109.747,97.244 99.477,96.746 88.609,96.219 61.503,94.904 33.473,93.544 11.326,94.972 L 8.48,95.154 c -26.3,1.271 -48.722,2.155 -70.408,2.776 -23.115,0.877 -37.443,-0.195 -41.833,-22.271 l -0.143,-0.552 c -0.54,-1.682 -0.345,-3.107 0.595,-4.356 1.375,-1.826 4.08,-2.961 6.833,-2.867 l 0.206,0.006 0.207,-0.011 c 8.859,-0.462 17.991,-0.392 26.827,-0.324 5.552,0.042 11.296,0.086 16.978,0 l 0.131,-0.003 c 2.919,-0.121 5.858,-0.234 8.812,-0.346 14.972,-0.572 30.456,-1.163 45.307,-2.902 L 2.565,64.236 3.109,64.04 C 9.928,61.576 10.613,57.431 10.414,55.179 9.661,46.647 -6.459,42.309 -9.054,41.672 l 0.002,-0.008 C -32.471,35.868 -54.955,25.539 -76.698,15.551 -85.15,11.668 -93.889,7.654 -102.601,3.939 l -0.642,-0.289 c -7.252,-3.265 -16.261,-7.322 -20.072,-13.056 -4.091,-7.948 -7.119,-19.585 -4.369,-26.953 m 90.017,-18.351 c -19.706,0 -40.859,0.631 -61.999,2.528 -2.145,0.161 -4.583,0.168 -7.164,0.175 -9.974,0.028 -22.386,0.064 -29.421,10.445 l -0.28,0.416 -0.194,0.461 c -4.655,11.141 -0.404,26.416 4.652,36.113 l 0.225,0.389 c 5.346,8.327 15.966,13.109 24.499,16.952 l 0.781,0.35 c 8.599,3.665 17.291,7.657 25.695,11.519 22.165,10.181 45.085,20.711 69.419,26.733 l 0.351,0.074 c 2.157,0.371 5.918,1.836 8.656,3.29 -13.482,1.418 -27.581,1.956 -41.25,2.478 -2.941,0.112 -5.868,0.224 -8.776,0.345 -5.551,0.082 -11.212,0.039 -16.687,-0.003 -8.917,-0.069 -18.136,-0.139 -27.233,0.328 -5.903,-0.149 -11.628,2.5 -14.905,6.853 -2.851,3.788 -3.635,8.443 -2.219,13.136 6.457,31.764 31.66,30.817 51.921,30.052 22.229,-0.637 45.268,-1.55 72.461,-2.873 l 1.798,-0.144 c 21.484,-1.32 48.919,0.013 75.462,1.3 11.009,0.534 21.407,1.039 30.972,1.329 l 0.236,0.007 0.236,-0.016 c 9.141,-0.588 19.827,-4.612 22.408,-14.14 l 0.115,-0.426 0.039,-0.441 c 1.396,-15.786 -3.415,-28.678 -12.87,-34.488 l -0.252,-0.145 C 108.012,46.613 85.923,36.717 64.563,27.145 45.439,18.577 25.666,9.718 6.838,-0.063 6.565,-0.215 6.256,-0.378 5.921,-0.553 c 12.8,0.183 25.839,1.203 38.475,2.192 15.099,1.181 30.713,2.4 46.201,2.238 9.752,0.288 18.413,-3.706 23.143,-10.706 6.282,-8.955 1.939,-19.571 -1.235,-27.326 l -0.095,-0.233 c -3.523,-8.757 -10.972,-14.277 -19.917,-14.738 l -0.212,-0.011 -0.213,0.007 c -25.26,0.842 -52.189,-0.641 -82.316,-4.535 l -0.449,-0.037 c -13.928,-0.534 -29.907,-1.008 -46.97,-1.008"
             style="fill:#000000;fill-opacity:1;fill-rule:nonzero;stroke:none"
             id="path52" />
        </g>
        <g
           id="g54"
           transform="translate(1489.7797,102.1202)">
          <path
             d="m 0,0 z m 25.152,-41.443 0.842,-0.065 c 21.278,-2.278 43.136,-1.932 64.272,-1.596 7.664,0.121 15.589,0.247 23.395,0.247 l 0.382,-0.015 c 10.728,-0.822 18.173,8.137 20.869,17.428 0.585,2.855 0.397,4.938 -0.561,6.191 -2.417,3.163 -10.699,3.626 -17.353,3.998 -4.858,0.272 -9.453,0.528 -13.302,1.63 -18.988,3.719 -38.733,3.047 -57.83,2.396 -9.571,-0.326 -19.467,-0.664 -29.132,-0.441 l -0.611,0.052 c -1.373,0.202 -3.299,0.221 -5.338,0.241 -7.122,0.069 -16.875,0.165 -20.323,8.648 l -0.164,0.403 -0.091,0.424 c -1.227,5.673 3.203,11.217 8.019,13.587 4.776,2.484 10.062,2.943 14.607,3.064 l 0.131,0.002 c 30.682,0.011 58.409,-0.167 86.782,-2.52 3.981,0.04 8.097,-0.232 12.082,-0.501 9.986,-0.673 19.433,-1.31 27.185,2.568 4.39,3.191 7.481,9.14 9.698,14.037 1.428,3.766 0.249,5.365 -0.141,5.894 -1.944,2.638 -7.411,4.262 -12.969,3.876 l -0.257,-0.018 -0.258,0.009 c -15.548,0.509 -31.481,0.604 -46.888,0.695 -23.827,0.142 -48.465,0.287 -72.394,1.97 l -0.499,0.06 c -5.148,0.888 -8.888,4.281 -9.53,8.644 -0.466,3.173 0.863,7.475 5.982,10.061 3.806,2.024 8.063,2.596 12.181,3.151 l 0.878,0.103 c 21.224,1.243 42.786,0.131 63.639,-0.945 15.718,-0.811 31.972,-1.648 47.698,-1.438 1.193,0.002 2.35,-0.009 3.517,-0.027 6.159,-0.08 11.97,-0.162 16.342,2.745 6.67,4.371 13.556,14.856 12.817,22.941 -0.343,3.753 -2.379,6.427 -6.22,8.166 -25.378,5.101 -51.501,4.17 -80.541,2.543 C 68.753,96.25 55.493,96.446 42.668,96.637 25.26,96.893 7.257,97.159 -10.537,95.63 l -0.217,-0.014 c -2.078,-0.089 -4.195,-0.127 -6.436,-0.169 -11.078,-0.203 -23.633,-0.434 -30.004,-7.152 -4.821,-5.145 -7.337,-14.5 -9.557,-22.755 -0.386,-1.434 -0.762,-2.83 -1.138,-4.165 -6.27,-23.765 -14.372,-45.641 -24.746,-66.795 -5.172,-10.53 -5.155,-23.629 0.038,-31.15 3.429,-4.966 8.873,-7.136 16.177,-6.442 l 0.33,0.021 c 8.696,0.245 17.565,0.726 26.142,1.192 20.789,1.128 42.291,2.294 64.749,0.386 z m 41.973,-11.906 c -13.976,0 -28.101,0.394 -42.111,1.889 l -1.611,0.129 c -21.574,1.786 -42.532,0.648 -62.809,-0.453 -8.589,-0.467 -17.468,-0.949 -26.242,-1.198 -10.78,-0.972 -19.726,2.834 -25.178,10.73 -7.238,10.483 -7.562,27.441 -0.786,41.237 10.078,20.552 17.954,41.823 24.076,65.024 0.389,1.379 0.753,2.735 1.128,4.129 2.524,9.386 5.386,20.025 11.937,27.016 9.275,9.781 24.701,10.064 37.097,10.292 2.14,0.039 4.163,0.076 6.089,0.157 18.259,1.561 36.478,1.292 54.101,1.033 12.692,-0.189 25.82,-0.383 38.78,0.117 29.852,1.675 56.813,2.621 83.525,-2.837 l 0.483,-0.099 0.454,-0.19 c 7.516,-3.16 12.038,-9.077 12.73,-16.661 1.126,-12.332 -7.894,-26.054 -17.267,-32.196 -6.923,-4.604 -14.934,-4.492 -21.987,-4.399 -1.108,0.016 -2.209,0.035 -3.294,0.026 -16.005,-0.212 -32.424,0.632 -48.3,1.452 -20.519,1.057 -41.736,2.15 -62.352,0.96 l -0.316,-0.043 c -3.325,-0.448 -6.469,-0.871 -8.685,-1.999 0.067,-0.018 0.139,-0.036 0.213,-0.052 23.518,-1.64 47.887,-1.784 71.458,-1.924 15.391,-0.091 31.305,-0.186 46.909,-0.692 7.27,0.446 16.634,-1.397 21.454,-7.938 2.215,-3.007 4.25,-8.148 1.365,-15.566 l -0.102,-0.244 C 155.09,18.161 151.04,10.471 144.46,5.901 L 143.908,5.569 C 133.618,0.237 122.196,1.009 111.155,1.753 107.109,2.026 103.281,2.284 99.646,2.229 L 99.4,2.226 99.156,2.246 C 71.105,4.583 43.548,4.749 13.034,4.751 9.632,4.658 5.767,4.349 2.805,2.794 L 2.663,2.723 C 1.382,2.102 0.488,1.064 0.148,0.409 1.828,-1.289 7.001,-1.34 10.883,-1.378 13.146,-1.4 15.29,-1.421 17.25,-1.679 c 9.288,-0.201 18.939,0.126 28.275,0.445 19.737,0.67 40.145,1.366 60.326,-2.623 l 0.457,-0.114 c 2.773,-0.826 6.89,-1.055 11.249,-1.3 9.153,-0.511 19.528,-1.091 24.739,-7.91 2.83,-3.702 3.625,-8.584 2.363,-14.507 l -0.081,-0.326 c -5.2,-18.301 -19.337,-25.652 -31.097,-24.843 -7.669,-0.002 -15.491,-0.126 -23.056,-0.247 -7.688,-0.121 -15.472,-0.245 -23.3,-0.245"
             style="fill:#000000;fill-opacity:1;fill-rule:nonzero;stroke:none"
             id="path56" />
        </g>
        <g
           id="g58"
           transform="translate(347.2186,107.9797)">
          <path
             d="M 0,0 C 0.216,-0.113 0.431,-0.225 0.647,-0.338 3.774,2.01 3.96,5.714 4.96,9.042 4.693,9.164 4.427,9.286 4.161,9.408 2.774,6.272 1.387,3.136 0,0 m 10.325,46.382 c -7.087,0.295 -4.104,5.554 -4.227,9.118 1.719,1.262 3.487,2.431 5.097,3.789 1.034,0.872 2.141,1.884 2.675,3.075 1.024,2.284 2.454,3.715 4.948,3.774 0.36,-0.699 0.712,-1.382 1.063,-2.065 0.864,0.544 1.728,1.087 2.744,1.726 5.095,-2.097 10.443,-4.298 15.503,-6.381 -0.333,-2.869 -0.585,-5.04 -0.89,-7.661 C 35.79,51.329 33.785,51.153 32.31,50.176 31.046,49.339 29.452,48.506 29.397,46.221 29.306,42.435 28.64,38.658 28.122,34.89 27.421,29.795 27.176,24.552 25.738,19.666 24.041,13.902 21.352,8.42 18.952,2.876 c -1.504,-3.473 -3.163,-6.89 -4.958,-10.221 -0.874,-1.622 -2.181,-3.021 -3.359,-4.466 -2.44,-2.995 -4.939,-5.941 -7.386,-8.93 -2.443,-2.982 -4.871,-5.976 -7.264,-8.999 -0.734,-0.927 -1.325,-1.967 -1.991,-2.948 -0.174,-0.256 -0.341,-0.638 -0.584,-0.706 -5.035,-1.414 -8.284,-5.525 -12.449,-8.246 -3.992,-2.609 -7.784,-5.425 -12.315,-7.23 -4.953,-1.971 -9.598,-4.708 -14.403,-7.058 -6.781,-3.316 -13.864,-5.797 -21.207,-7.549 -5.416,-1.292 -10.786,-2.815 -16.249,-3.865 -3.085,-0.593 -6.313,-0.563 -9.479,-0.59 -7.128,-0.061 -14.278,-0.301 -21.378,0.159 -4.236,0.275 -8.485,1.452 -12.566,2.737 -5.088,1.603 -10.014,3.723 -15,5.647 -1.368,0.528 -2.75,1.057 -4.037,1.75 -5.702,3.067 -11.37,6.197 -17.056,9.294 -0.263,0.143 -0.614,0.319 -0.867,0.254 -2.111,-0.539 -4.181,-1.326 -6.321,-1.626 -1.059,-0.148 -2.302,0.45 -3.328,0.972 -0.334,0.17 -0.483,1.249 -0.308,1.777 0.718,2.174 1.836,4.242 2.336,6.455 0.414,1.83 0.369,3.832 0.16,5.717 -0.234,2.101 -0.273,4.005 1.351,5.568 3.931,-1.374 8.01,-0.422 9.479,2.309 0.452,-0.37 0.876,-0.716 1.301,-1.061 3.614,2.164 9.893,-0.596 10.802,-4.745 0.256,-1.168 -1.615,-4.754 -3.3,-5.656 0.992,-0.798 1.737,-1.651 2.674,-2.107 3.706,-1.804 7.471,-3.489 11.221,-5.204 0.349,-0.159 0.78,-0.378 1.11,-0.301 3.495,0.819 6.605,-0.47 9.791,-1.582 1.182,-0.413 2.577,-0.182 3.809,-0.5 0.566,-0.146 0.973,-0.909 1.452,-1.392 -0.601,-0.089 -1.233,-0.344 -1.798,-0.24 -3.486,0.643 -6.953,1.384 -10.436,2.042 -0.505,0.096 -1.061,-0.076 -2.244,-0.184 4.088,-2.88 8.017,-3.963 12.206,-4.351 2.287,-0.213 4.563,-0.54 6.849,-0.766 0.447,-0.044 1.099,-0.024 1.348,0.248 2.439,2.672 4.548,0.349 6.818,-0.301 1.212,-0.347 2.554,-0.314 3.838,-0.327 3.122,-0.032 6.25,-0.088 9.367,0.052 2.58,0.115 5.171,0.36 7.716,0.791 4.519,0.767 9.013,1.685 13.504,2.605 2.687,0.55 5.365,1.163 8.015,1.866 1.569,0.416 3.077,1.062 5.057,1.762 -0.905,0.949 -1.287,1.35 -1.869,1.96 0.281,0.15 0.469,0.321 0.679,0.352 1.381,0.207 2.8,0.671 4.145,0.517 4.293,-0.491 7.552,1.852 11.061,3.623 4.148,2.094 8.461,3.884 12.501,6.162 2.867,1.616 5.489,3.713 8.059,5.794 2.975,2.409 5.924,4.887 8.608,7.607 3.021,3.061 6.055,6.201 8.507,9.71 4.234,6.057 8.374,12.235 11.9,18.717 3.544,6.513 6.847,13.174 9.588,20.133 1.789,4.545 2.722,8.985 2.589,13.754 -0.031,1.081 -0.08,2.2 -0.384,3.223 -0.322,1.085 -0.958,2.078 -1.457,3.11 -0.765,-0.621 -1.529,-1.242 -2.475,-2.01"
             style="fill:#000000;fill-opacity:1;fill-rule:nonzero;stroke:none"
             id="path60" />
        </g>
        <g
           id="g62"
           transform="translate(310.5867,200.9431)">
          <path
             d="m 0,0 c 5.277,-1.694 10.439,-3.503 15.696,-4.975 2.562,-0.718 5.299,-0.809 7.957,-1.181 0.154,-0.021 0.323,0.019 0.465,-0.029 3.264,-1.119 6.676,-1.953 9.713,-3.517 1.202,-0.619 1.566,-2.864 2.017,-4.428 0.776,-0.708 2.226,-1.464 2.18,-2.113 -0.082,-1.136 -1.081,-2.206 -1.886,-3.642 2.937,-3.265 -2.557,-4.52 -2.392,-7.477 h -3.175 c -1.11,2.755 -1.523,2.96 -4.243,1.995 -0.207,-0.073 -0.458,-0.074 -0.679,-0.042 -3.053,0.441 -6.147,0.703 -9.145,1.384 -5.065,1.151 -10.063,2.591 -15.101,3.864 -2.192,0.553 -4.412,0.992 -6.994,1.566 -0.704,-1.642 -1.587,-3.591 -2.378,-5.576 -1.002,-2.517 -1.997,-5.042 -2.846,-7.612 -0.225,-0.679 -0.176,-2.001 0.216,-2.232 1.439,-0.848 1.069,-1.706 0.636,-2.927 -0.423,-1.194 -0.316,-2.566 -0.637,-3.809 -0.394,-1.526 -0.99,-3.001 -1.499,-4.498 -0.294,-0.012 -0.589,-0.023 -0.883,-0.035 -0.504,1.488 -1.008,2.976 -1.495,4.414 0.866,1.474 1.741,2.963 2.616,4.452 l -0.949,0.691 c -0.807,-0.895 -1.842,-1.672 -2.377,-2.707 -1.488,-2.883 -2.813,-5.854 -4.099,-8.835 -0.287,-0.667 0.064,-1.62 -0.248,-2.262 -1.001,-2.066 -2.022,-4.16 -3.364,-6.004 -0.476,-0.654 -1.897,-0.622 -2.659,-0.839 -0.981,1.25 -1.726,2.198 -2.542,3.235 0.555,1.711 0.081,2.458 -1.217,1.631 -0.674,-0.43 -1.229,-1.044 -2.236,-1.924 -0.619,2.658 -1.13,4.857 -1.642,7.056 0.144,0.008 0.287,0.016 0.43,0.024 -0.134,1.472 -0.45,2.955 -0.356,4.412 0.113,1.742 0.402,3.517 0.927,5.179 0.923,2.924 2.17,5.745 3.085,8.671 0.232,0.741 -0.276,1.714 -0.468,2.707 3.018,-0.44 2.741,2.249 3.335,4.05 0.722,2.19 1.397,4.441 1.67,6.716 0.137,1.142 -0.288,2.954 -1.105,3.502 -3.367,2.26 -6.979,4.157 -10.508,6.174 -0.539,0.308 -1.115,0.553 -1.676,0.82 -2.524,1.201 -4.742,2.981 -7.992,2.196 -2.741,-0.662 -4.591,1.417 -6.462,3.774 0.984,0.076 1.727,0.134 2.771,0.215 -0.199,0.509 -0.244,1.151 -0.556,1.332 -1.956,1.135 -3.974,2.162 -5.966,3.237 -0.466,0.252 -1.014,0.461 -1.34,0.846 -1.229,1.452 -2.273,3.075 -3.6,4.424 -0.987,1.005 -1.192,1.717 -0.407,2.962 0.433,0.688 0.26,1.757 0.394,2.956 0.509,-0.115 1.105,-0.134 1.589,-0.377 2.429,-1.222 4.842,-1.147 7.321,-0.154 0.62,0.249 1.39,0.405 2.028,0.28 2.852,-0.557 5.705,-1.138 8.511,-1.885 3.773,-1.005 7.545,-2.048 11.239,-3.303 3.544,-1.204 7.004,-2.663 10.473,-4.077 2.555,-1.042 3.644,-0.683 4.6,1.839 1.041,2.744 1.944,5.542 3.026,8.269 0.259,0.651 0.92,1.465 1.524,1.59 1.303,0.27 1.45,1.083 1.869,2.122 1.851,4.584 3.859,9.107 5.898,13.612 1.406,3.107 2.818,6.228 4.532,9.166 0.461,0.789 1.998,1.074 3.102,1.341 4.231,1.027 6.607,-1.133 6.148,-5.433 -0.078,-0.727 0.157,-1.482 0.168,-2.226 C 11.04,36.979 11.179,35.351 10.976,33.77 10.531,30.324 10.173,26.829 9.277,23.489 8.215,19.533 6.775,15.658 5.219,11.862 3.785,8.361 1.973,5.016 0.354,1.589 0.167,1.194 0.153,0.718 0,0"
             style="fill:#000000;fill-opacity:1;fill-rule:nonzero;stroke:none"
             id="path64" />
        </g>
        <g
           id="g66"
           transform="translate(260.1207,38.4689)">
          <path
             d="M 0,0 C 2.224,0.263 4.448,0.526 7.014,0.829 5.538,-1.581 3.634,-1.416 0,0"
             style="fill:#000000;fill-opacity:1;fill-rule:nonzero;stroke:none"
             id="path68" />
        </g>
        <g
           id="g70"
           transform="translate(347.2186,107.9797)">
          <path
             d="M 0,0 C 1.387,3.136 2.774,6.272 4.161,9.408 4.427,9.286 4.693,9.164 4.96,9.042 3.96,5.714 3.774,2.01 0.647,-0.338 0.431,-0.225 0.216,-0.113 0,0"
             style="fill:#000000;fill-opacity:1;fill-rule:nonzero;stroke:none"
             id="path72" />
        </g>
      </g>
    </g>
  </g>
</svg>
